<mxfile host="app.diagrams.net" modified="2022-11-03T05:58:53.696Z" agent="5.0 (Macintosh; Intel Mac OS X 10_15_7) AppleWebKit/537.36 (KHTML, like Gecko) Chrome/107.0.0.0 Safari/537.36" etag="PoRMudRx_91cwRE_GuPw" version="20.5.1" type="github">
  <diagram id="GxGMouDFHkgMhzsaOCU6" name="第 1 页">
    <mxGraphModel dx="927" dy="596" grid="1" gridSize="10" guides="1" tooltips="1" connect="1" arrows="1" fold="1" page="1" pageScale="1" pageWidth="827" pageHeight="1169" math="0" shadow="0">
      <root>
        <mxCell id="0" />
        <mxCell id="1" parent="0" />
        <mxCell id="ymVFFXbmdIwkiD_EwIhI-18" value="" style="group" vertex="1" connectable="0" parent="1">
          <mxGeometry x="40" y="120" width="770" height="80" as="geometry" />
        </mxCell>
        <mxCell id="ymVFFXbmdIwkiD_EwIhI-1" value="" style="rounded=0;whiteSpace=wrap;html=1;" vertex="1" parent="ymVFFXbmdIwkiD_EwIhI-18">
          <mxGeometry width="770" height="80" as="geometry" />
        </mxCell>
        <mxCell id="ymVFFXbmdIwkiD_EwIhI-2" value="Gourp-1" style="rounded=0;whiteSpace=wrap;html=1;fillColor=#dae8fc;strokeColor=#6c8ebf;" vertex="1" parent="ymVFFXbmdIwkiD_EwIhI-18">
          <mxGeometry x="10" y="10" width="120" height="60" as="geometry" />
        </mxCell>
        <mxCell id="ymVFFXbmdIwkiD_EwIhI-3" value="" style="rounded=0;whiteSpace=wrap;html=1;" vertex="1" parent="ymVFFXbmdIwkiD_EwIhI-18">
          <mxGeometry x="140" y="10" width="580" height="60" as="geometry" />
        </mxCell>
        <mxCell id="ymVFFXbmdIwkiD_EwIhI-4" value="value=true&lt;br&gt;index=0" style="rounded=0;whiteSpace=wrap;html=1;" vertex="1" parent="ymVFFXbmdIwkiD_EwIhI-18">
          <mxGeometry x="140" y="10" width="120" height="60" as="geometry" />
        </mxCell>
        <mxCell id="ymVFFXbmdIwkiD_EwIhI-5" value="value=true&lt;br&gt;index=1" style="rounded=0;whiteSpace=wrap;html=1;" vertex="1" parent="ymVFFXbmdIwkiD_EwIhI-18">
          <mxGeometry x="260" y="10" width="120" height="60" as="geometry" />
        </mxCell>
        <mxCell id="ymVFFXbmdIwkiD_EwIhI-6" value="value=false&lt;br&gt;index=2" style="rounded=0;whiteSpace=wrap;html=1;" vertex="1" parent="ymVFFXbmdIwkiD_EwIhI-18">
          <mxGeometry x="380" y="10" width="120" height="60" as="geometry" />
        </mxCell>
        <mxCell id="ymVFFXbmdIwkiD_EwIhI-7" value="value=true&lt;br&gt;index=3" style="rounded=0;whiteSpace=wrap;html=1;" vertex="1" parent="ymVFFXbmdIwkiD_EwIhI-18">
          <mxGeometry x="500" y="10" width="120" height="60" as="geometry" />
        </mxCell>
        <mxCell id="ymVFFXbmdIwkiD_EwIhI-9" value=".....&lt;br&gt;n" style="rounded=0;whiteSpace=wrap;html=1;" vertex="1" parent="ymVFFXbmdIwkiD_EwIhI-18">
          <mxGeometry x="620" y="10" width="120" height="60" as="geometry" />
        </mxCell>
        <mxCell id="ymVFFXbmdIwkiD_EwIhI-19" value="" style="group" vertex="1" connectable="0" parent="1">
          <mxGeometry x="40" y="200" width="770" height="80" as="geometry" />
        </mxCell>
        <mxCell id="ymVFFXbmdIwkiD_EwIhI-20" value="" style="rounded=0;whiteSpace=wrap;html=1;" vertex="1" parent="ymVFFXbmdIwkiD_EwIhI-19">
          <mxGeometry width="770" height="80" as="geometry" />
        </mxCell>
        <mxCell id="ymVFFXbmdIwkiD_EwIhI-21" value="Gourp-2" style="rounded=0;whiteSpace=wrap;html=1;fillColor=#dae8fc;strokeColor=#6c8ebf;" vertex="1" parent="ymVFFXbmdIwkiD_EwIhI-19">
          <mxGeometry x="10" y="10" width="120" height="60" as="geometry" />
        </mxCell>
        <mxCell id="ymVFFXbmdIwkiD_EwIhI-22" value="" style="rounded=0;whiteSpace=wrap;html=1;" vertex="1" parent="ymVFFXbmdIwkiD_EwIhI-19">
          <mxGeometry x="140" y="10" width="580" height="60" as="geometry" />
        </mxCell>
        <mxCell id="ymVFFXbmdIwkiD_EwIhI-23" value="value=true&lt;br&gt;index=0" style="rounded=0;whiteSpace=wrap;html=1;" vertex="1" parent="ymVFFXbmdIwkiD_EwIhI-19">
          <mxGeometry x="140" y="10" width="120" height="60" as="geometry" />
        </mxCell>
        <mxCell id="ymVFFXbmdIwkiD_EwIhI-24" value="value=true&lt;br&gt;index=1" style="rounded=0;whiteSpace=wrap;html=1;" vertex="1" parent="ymVFFXbmdIwkiD_EwIhI-19">
          <mxGeometry x="260" y="10" width="120" height="60" as="geometry" />
        </mxCell>
        <mxCell id="ymVFFXbmdIwkiD_EwIhI-25" value="value=false&lt;br&gt;index=2" style="rounded=0;whiteSpace=wrap;html=1;" vertex="1" parent="ymVFFXbmdIwkiD_EwIhI-19">
          <mxGeometry x="380" y="10" width="120" height="60" as="geometry" />
        </mxCell>
        <mxCell id="ymVFFXbmdIwkiD_EwIhI-26" value="value=true&lt;br&gt;index=3" style="rounded=0;whiteSpace=wrap;html=1;" vertex="1" parent="ymVFFXbmdIwkiD_EwIhI-19">
          <mxGeometry x="500" y="10" width="120" height="60" as="geometry" />
        </mxCell>
        <mxCell id="ymVFFXbmdIwkiD_EwIhI-27" value=".....&lt;br&gt;n" style="rounded=0;whiteSpace=wrap;html=1;" vertex="1" parent="ymVFFXbmdIwkiD_EwIhI-19">
          <mxGeometry x="620" y="10" width="120" height="60" as="geometry" />
        </mxCell>
        <mxCell id="ymVFFXbmdIwkiD_EwIhI-28" value="" style="group" vertex="1" connectable="0" parent="1">
          <mxGeometry x="40" y="280" width="770" height="80" as="geometry" />
        </mxCell>
        <mxCell id="ymVFFXbmdIwkiD_EwIhI-29" value="" style="rounded=0;whiteSpace=wrap;html=1;" vertex="1" parent="ymVFFXbmdIwkiD_EwIhI-28">
          <mxGeometry width="770" height="80" as="geometry" />
        </mxCell>
        <mxCell id="ymVFFXbmdIwkiD_EwIhI-30" value="Gourp-3" style="rounded=0;whiteSpace=wrap;html=1;fillColor=#dae8fc;strokeColor=#6c8ebf;" vertex="1" parent="ymVFFXbmdIwkiD_EwIhI-28">
          <mxGeometry x="10" y="10" width="120" height="60" as="geometry" />
        </mxCell>
        <mxCell id="ymVFFXbmdIwkiD_EwIhI-31" value="" style="rounded=0;whiteSpace=wrap;html=1;" vertex="1" parent="ymVFFXbmdIwkiD_EwIhI-28">
          <mxGeometry x="140" y="10" width="580" height="60" as="geometry" />
        </mxCell>
        <mxCell id="ymVFFXbmdIwkiD_EwIhI-32" value="true&lt;br&gt;0" style="rounded=0;whiteSpace=wrap;html=1;" vertex="1" parent="ymVFFXbmdIwkiD_EwIhI-28">
          <mxGeometry x="140" y="10" width="120" height="60" as="geometry" />
        </mxCell>
        <mxCell id="ymVFFXbmdIwkiD_EwIhI-33" value="true&lt;br&gt;1" style="rounded=0;whiteSpace=wrap;html=1;" vertex="1" parent="ymVFFXbmdIwkiD_EwIhI-28">
          <mxGeometry x="260" y="10" width="120" height="60" as="geometry" />
        </mxCell>
        <mxCell id="ymVFFXbmdIwkiD_EwIhI-34" value="false&lt;br&gt;2" style="rounded=0;whiteSpace=wrap;html=1;" vertex="1" parent="ymVFFXbmdIwkiD_EwIhI-28">
          <mxGeometry x="380" y="10" width="120" height="60" as="geometry" />
        </mxCell>
        <mxCell id="ymVFFXbmdIwkiD_EwIhI-35" value="true&lt;br&gt;3" style="rounded=0;whiteSpace=wrap;html=1;" vertex="1" parent="ymVFFXbmdIwkiD_EwIhI-28">
          <mxGeometry x="500" y="10" width="120" height="60" as="geometry" />
        </mxCell>
        <mxCell id="ymVFFXbmdIwkiD_EwIhI-36" value=".....&lt;br&gt;n" style="rounded=0;whiteSpace=wrap;html=1;" vertex="1" parent="ymVFFXbmdIwkiD_EwIhI-28">
          <mxGeometry x="620" y="10" width="120" height="60" as="geometry" />
        </mxCell>
        <mxCell id="ymVFFXbmdIwkiD_EwIhI-37" value="" style="group" vertex="1" connectable="0" parent="1">
          <mxGeometry x="40" y="360" width="770" height="80" as="geometry" />
        </mxCell>
        <mxCell id="ymVFFXbmdIwkiD_EwIhI-38" value="" style="rounded=0;whiteSpace=wrap;html=1;" vertex="1" parent="ymVFFXbmdIwkiD_EwIhI-37">
          <mxGeometry width="770" height="80" as="geometry" />
        </mxCell>
        <mxCell id="ymVFFXbmdIwkiD_EwIhI-39" value="Gourp...n" style="rounded=0;whiteSpace=wrap;html=1;fillColor=#dae8fc;strokeColor=#6c8ebf;" vertex="1" parent="ymVFFXbmdIwkiD_EwIhI-37">
          <mxGeometry x="10" y="10" width="120" height="60" as="geometry" />
        </mxCell>
        <mxCell id="ymVFFXbmdIwkiD_EwIhI-40" value="" style="rounded=0;whiteSpace=wrap;html=1;" vertex="1" parent="ymVFFXbmdIwkiD_EwIhI-37">
          <mxGeometry x="140" y="10" width="580" height="60" as="geometry" />
        </mxCell>
        <mxCell id="ymVFFXbmdIwkiD_EwIhI-41" value="true&lt;br&gt;0" style="rounded=0;whiteSpace=wrap;html=1;" vertex="1" parent="ymVFFXbmdIwkiD_EwIhI-37">
          <mxGeometry x="140" y="10" width="120" height="60" as="geometry" />
        </mxCell>
        <mxCell id="ymVFFXbmdIwkiD_EwIhI-42" value="true&lt;br&gt;1" style="rounded=0;whiteSpace=wrap;html=1;" vertex="1" parent="ymVFFXbmdIwkiD_EwIhI-37">
          <mxGeometry x="260" y="10" width="120" height="60" as="geometry" />
        </mxCell>
        <mxCell id="ymVFFXbmdIwkiD_EwIhI-43" value="false&lt;br&gt;2" style="rounded=0;whiteSpace=wrap;html=1;" vertex="1" parent="ymVFFXbmdIwkiD_EwIhI-37">
          <mxGeometry x="380" y="10" width="120" height="60" as="geometry" />
        </mxCell>
        <mxCell id="ymVFFXbmdIwkiD_EwIhI-44" value="true&lt;br&gt;3" style="rounded=0;whiteSpace=wrap;html=1;" vertex="1" parent="ymVFFXbmdIwkiD_EwIhI-37">
          <mxGeometry x="500" y="10" width="120" height="60" as="geometry" />
        </mxCell>
        <mxCell id="ymVFFXbmdIwkiD_EwIhI-45" value=".....&lt;br&gt;n" style="rounded=0;whiteSpace=wrap;html=1;" vertex="1" parent="ymVFFXbmdIwkiD_EwIhI-37">
          <mxGeometry x="620" y="10" width="120" height="60" as="geometry" />
        </mxCell>
        <mxCell id="ymVFFXbmdIwkiD_EwIhI-49" value="" style="group" vertex="1" connectable="0" parent="1">
          <mxGeometry x="40" y="480" width="240" height="60" as="geometry" />
        </mxCell>
        <mxCell id="ymVFFXbmdIwkiD_EwIhI-46" value="member-1" style="rounded=0;whiteSpace=wrap;html=1;" vertex="1" parent="ymVFFXbmdIwkiD_EwIhI-49">
          <mxGeometry width="120" height="60" as="geometry" />
        </mxCell>
        <mxCell id="ymVFFXbmdIwkiD_EwIhI-47" value="index=0" style="rounded=0;whiteSpace=wrap;html=1;" vertex="1" parent="ymVFFXbmdIwkiD_EwIhI-49">
          <mxGeometry x="120" width="120" height="60" as="geometry" />
        </mxCell>
        <mxCell id="ymVFFXbmdIwkiD_EwIhI-50" value="" style="group" vertex="1" connectable="0" parent="1">
          <mxGeometry x="40" y="540" width="240" height="60" as="geometry" />
        </mxCell>
        <mxCell id="ymVFFXbmdIwkiD_EwIhI-51" value="member-2" style="rounded=0;whiteSpace=wrap;html=1;" vertex="1" parent="ymVFFXbmdIwkiD_EwIhI-50">
          <mxGeometry width="120" height="60" as="geometry" />
        </mxCell>
        <mxCell id="ymVFFXbmdIwkiD_EwIhI-52" value="index=1" style="rounded=0;whiteSpace=wrap;html=1;" vertex="1" parent="ymVFFXbmdIwkiD_EwIhI-50">
          <mxGeometry x="120" width="120" height="60" as="geometry" />
        </mxCell>
        <mxCell id="ymVFFXbmdIwkiD_EwIhI-53" value="" style="group" vertex="1" connectable="0" parent="1">
          <mxGeometry x="40" y="600" width="240" height="60" as="geometry" />
        </mxCell>
        <mxCell id="ymVFFXbmdIwkiD_EwIhI-54" value="member-3" style="rounded=0;whiteSpace=wrap;html=1;" vertex="1" parent="ymVFFXbmdIwkiD_EwIhI-53">
          <mxGeometry width="120" height="60" as="geometry" />
        </mxCell>
        <mxCell id="ymVFFXbmdIwkiD_EwIhI-55" value="index=2" style="rounded=0;whiteSpace=wrap;html=1;" vertex="1" parent="ymVFFXbmdIwkiD_EwIhI-53">
          <mxGeometry x="120" width="120" height="60" as="geometry" />
        </mxCell>
        <mxCell id="ymVFFXbmdIwkiD_EwIhI-56" value="" style="group" vertex="1" connectable="0" parent="1">
          <mxGeometry x="40" y="660" width="240" height="60" as="geometry" />
        </mxCell>
        <mxCell id="ymVFFXbmdIwkiD_EwIhI-57" value="member-..n" style="rounded=0;whiteSpace=wrap;html=1;" vertex="1" parent="ymVFFXbmdIwkiD_EwIhI-56">
          <mxGeometry width="120" height="60" as="geometry" />
        </mxCell>
        <mxCell id="ymVFFXbmdIwkiD_EwIhI-58" value="index=...n" style="rounded=0;whiteSpace=wrap;html=1;" vertex="1" parent="ymVFFXbmdIwkiD_EwIhI-56">
          <mxGeometry x="120" width="120" height="60" as="geometry" />
        </mxCell>
        <mxCell id="ymVFFXbmdIwkiD_EwIhI-59" value="" style="rounded=0;whiteSpace=wrap;html=1;" vertex="1" parent="1">
          <mxGeometry x="40" y="800" width="760" height="80" as="geometry" />
        </mxCell>
        <mxCell id="ymVFFXbmdIwkiD_EwIhI-60" value="member-1" style="rounded=0;whiteSpace=wrap;html=1;" vertex="1" parent="1">
          <mxGeometry x="60" y="810" width="120" height="60" as="geometry" />
        </mxCell>
        <mxCell id="ymVFFXbmdIwkiD_EwIhI-61" value="goup-1" style="rounded=0;whiteSpace=wrap;html=1;fillColor=#dae8fc;strokeColor=#6c8ebf;" vertex="1" parent="1">
          <mxGeometry x="200" y="810" width="120" height="60" as="geometry" />
        </mxCell>
        <mxCell id="ymVFFXbmdIwkiD_EwIhI-62" value="group-2" style="rounded=0;whiteSpace=wrap;html=1;fillColor=#dae8fc;strokeColor=#6c8ebf;" vertex="1" parent="1">
          <mxGeometry x="320" y="810" width="120" height="60" as="geometry" />
        </mxCell>
        <mxCell id="ymVFFXbmdIwkiD_EwIhI-63" value="group-7" style="rounded=0;whiteSpace=wrap;html=1;fillColor=#dae8fc;strokeColor=#6c8ebf;" vertex="1" parent="1">
          <mxGeometry x="440" y="810" width="120" height="60" as="geometry" />
        </mxCell>
        <mxCell id="ymVFFXbmdIwkiD_EwIhI-64" value="group-x" style="rounded=0;whiteSpace=wrap;html=1;fillColor=#dae8fc;strokeColor=#6c8ebf;" vertex="1" parent="1">
          <mxGeometry x="560" y="810" width="120" height="60" as="geometry" />
        </mxCell>
        <mxCell id="ymVFFXbmdIwkiD_EwIhI-65" value="" style="rounded=0;whiteSpace=wrap;html=1;" vertex="1" parent="1">
          <mxGeometry x="40" y="880" width="760" height="80" as="geometry" />
        </mxCell>
        <mxCell id="ymVFFXbmdIwkiD_EwIhI-66" value="member-2" style="rounded=0;whiteSpace=wrap;html=1;" vertex="1" parent="1">
          <mxGeometry x="60" y="890" width="120" height="60" as="geometry" />
        </mxCell>
        <mxCell id="ymVFFXbmdIwkiD_EwIhI-67" value="goup-7" style="rounded=0;whiteSpace=wrap;html=1;fillColor=#dae8fc;strokeColor=#6c8ebf;" vertex="1" parent="1">
          <mxGeometry x="200" y="890" width="120" height="60" as="geometry" />
        </mxCell>
        <mxCell id="ymVFFXbmdIwkiD_EwIhI-68" value="group-12" style="rounded=0;whiteSpace=wrap;html=1;fillColor=#dae8fc;strokeColor=#6c8ebf;" vertex="1" parent="1">
          <mxGeometry x="320" y="890" width="120" height="60" as="geometry" />
        </mxCell>
        <mxCell id="ymVFFXbmdIwkiD_EwIhI-70" value="group-x" style="rounded=0;whiteSpace=wrap;html=1;fillColor=#dae8fc;strokeColor=#6c8ebf;" vertex="1" parent="1">
          <mxGeometry x="440" y="890" width="120" height="60" as="geometry" />
        </mxCell>
        <mxCell id="ymVFFXbmdIwkiD_EwIhI-71" value="" style="rounded=0;whiteSpace=wrap;html=1;" vertex="1" parent="1">
          <mxGeometry x="40" y="960" width="760" height="80" as="geometry" />
        </mxCell>
        <mxCell id="ymVFFXbmdIwkiD_EwIhI-72" value="member-1" style="rounded=0;whiteSpace=wrap;html=1;" vertex="1" parent="1">
          <mxGeometry x="60" y="970" width="120" height="60" as="geometry" />
        </mxCell>
        <mxCell id="ymVFFXbmdIwkiD_EwIhI-73" value="goup-56" style="rounded=0;whiteSpace=wrap;html=1;fillColor=#dae8fc;strokeColor=#6c8ebf;" vertex="1" parent="1">
          <mxGeometry x="200" y="970" width="120" height="60" as="geometry" />
        </mxCell>
        <mxCell id="ymVFFXbmdIwkiD_EwIhI-74" value="group-89" style="rounded=0;whiteSpace=wrap;html=1;fillColor=#dae8fc;strokeColor=#6c8ebf;" vertex="1" parent="1">
          <mxGeometry x="320" y="970" width="120" height="60" as="geometry" />
        </mxCell>
        <mxCell id="ymVFFXbmdIwkiD_EwIhI-75" value="group-101" style="rounded=0;whiteSpace=wrap;html=1;fillColor=#dae8fc;strokeColor=#6c8ebf;" vertex="1" parent="1">
          <mxGeometry x="440" y="970" width="120" height="60" as="geometry" />
        </mxCell>
        <mxCell id="ymVFFXbmdIwkiD_EwIhI-76" value="group-x" style="rounded=0;whiteSpace=wrap;html=1;fillColor=#dae8fc;strokeColor=#6c8ebf;" vertex="1" parent="1">
          <mxGeometry x="560" y="970" width="120" height="60" as="geometry" />
        </mxCell>
        <mxCell id="ymVFFXbmdIwkiD_EwIhI-77" value="" style="rounded=0;whiteSpace=wrap;html=1;" vertex="1" parent="1">
          <mxGeometry x="40" y="1040" width="760" height="80" as="geometry" />
        </mxCell>
        <mxCell id="ymVFFXbmdIwkiD_EwIhI-78" value="member-2" style="rounded=0;whiteSpace=wrap;html=1;" vertex="1" parent="1">
          <mxGeometry x="60" y="1050" width="120" height="60" as="geometry" />
        </mxCell>
        <mxCell id="ymVFFXbmdIwkiD_EwIhI-79" value="goup-99" style="rounded=0;whiteSpace=wrap;html=1;fillColor=#dae8fc;strokeColor=#6c8ebf;" vertex="1" parent="1">
          <mxGeometry x="200" y="1050" width="120" height="60" as="geometry" />
        </mxCell>
      </root>
    </mxGraphModel>
  </diagram>
</mxfile>
